<svg id="Capa_1" enable-background="new 0 0 512 512" height="512" viewBox="0 0 512 512" width="512" xmlns="http://www.w3.org/2000/svg"><path d="m335.808 55.02-54.439-45.728c-7.374-6.195-16.372-9.292-25.369-9.292s-17.995 3.097-25.369 9.292l-54.439 45.728z"/><path d="m46 200.888 203.843 159.252c2.243 1.752 4.586 2.12 6.157 2.12s3.914-.368 6.156-2.12l203.844-159.252v-95.868c0-11.046-8.954-20-20-20h-380c-11.046 0-20 8.954-20 20zm334.5 24.112c0 8.284-6.716 15-15 15h-219c-8.284 0-15-6.716-15-15s6.716-15 15-15h219c8.284 0 15 6.716 15 15zm-92-75c8.284 0 15 6.716 15 15s-6.716 15-15 15h-142c-8.284 0-15-6.716-15-15s6.716-15 15-15z"/><path d="m472 512c4.104 0 8.062-.62 11.789-1.768l-188.329-135.021c-.67-.481-1.274-1.017-1.841-1.581l-12.994 10.151c-7.235 5.653-15.931 8.479-24.626 8.479s-17.39-2.826-24.626-8.479l-12.994-10.151c-.566.564-1.17 1.1-1.841 1.581l-188.327 135.021c3.727 1.148 7.685 1.768 11.789 1.768z"/><path d="m512 203.02-193.916 151.497 189.457 135.83c2.843-5.497 4.459-11.732 4.459-18.347z"/><path d="m193.916 354.517-193.916-151.497v268.98c0 6.615 1.616 12.85 4.459 18.346z"/></svg>